<?xml version="1.0" standalone="no"?>
<!-- Generator: Adobe Fireworks 10, Export SVG Extension by Aaron Beall (http://fireworks.abeall.com) . Version: 0.6.1  -->
<!DOCTYPE svg PUBLIC "-//W3C//DTD SVG 1.1//EN" "http://www.w3.org/Graphics/SVG/1.1/DTD/svg11.dtd">
<svg id="Untitled-page%201" viewBox="0 0 64 64" style="background-color:#ffffff00" version="1.1"
	xmlns="http://www.w3.org/2000/svg" xmlns:xlink="http://www.w3.org/1999/xlink" xml:space="preserve"
	x="0px" y="0px" width="64px" height="64px"
>
	<g id="Calque%201">
		<g>
			<g id="m%E9diath%E8que">
				<g>
					<g>
						<path d="M 6.4689 43.3967 C 6.4689 43.3967 5.2082 53.2959 15.4825 55.1423 C 24.8544 55.6464 41.6167 56.1518 46.1229 51.7871 C 50.6293 47.4239 56.2159 35.0077 55.8566 27.6238 C 50.6293 27.4557 29.9006 31.4829 29.9006 31.4829 C 29.9006 31.4829 33.9557 36.6846 22.2412 42.7261 C 18.9971 42.894 6.4689 43.3967 6.4689 43.3967 Z" fill="#f6ddb1"/>
						<path d="M 6.5828 43.8477 C 6.5959 46.4507 7.3468 48.8783 8.8913 50.9018 C 9.6807 51.9204 10.7047 52.6589 11.8646 53.2552 C 13.0392 53.8302 14.3161 54.1829 15.6459 54.3962 L 15.5322 54.3599 C 20.4845 54.5385 25.4242 54.6157 30.3475 54.5732 C 32.808 54.5597 35.2709 54.4841 37.7045 54.2191 C 40.1136 53.9316 42.6002 53.549 44.6728 52.4229 C 45.193 52.1504 45.6465 51.7992 46.0374 51.3967 C 46.4587 50.9668 46.8649 50.531 47.2146 50.0769 C 47.9519 49.181 48.5769 48.1792 49.1897 47.1908 C 50.3959 45.19 51.416 43.088 52.2393 40.9253 C 53.0792 38.77 53.7676 36.5634 54.2535 34.3328 C 54.5008 33.2202 54.687 32.0989 54.8202 30.9834 C 54.9625 29.865 54.9827 28.7541 54.9364 27.663 L 55.8249 28.4802 C 54.8152 28.5014 53.7507 28.5983 52.6791 28.7209 C 51.6096 28.8345 50.5335 28.9903 49.4597 29.1401 C 47.3089 29.4548 45.1597 29.8181 43.0123 30.192 L 30.1298 32.5059 L 30.8092 30.8699 C 31.1157 31.3042 31.2312 31.6085 31.3758 31.9868 C 31.496 32.3516 31.5895 32.7192 31.6261 33.0931 C 31.6944 33.4656 31.6553 33.8378 31.6528 34.2072 C 31.5878 34.5671 31.5759 34.9456 31.4513 35.2845 C 31.3368 35.6282 31.2457 35.9838 31.0709 36.2942 C 30.9069 36.6088 30.7726 36.9464 30.5606 37.2247 C 30.189 37.8271 29.738 38.3508 29.2713 38.8578 C 29.0496 39.1226 28.7757 39.327 28.53 39.5645 C 28.2724 39.7856 28.0376 40.0383 27.7604 40.2321 C 27.2118 40.6241 26.6971 41.0688 26.1199 41.4111 C 25.5452 41.756 24.9942 42.1435 24.4025 42.4522 L 22.6346 43.7387 L 22.4607 44.1837 L 22.2859 44.1837 C 17.0513 44.1837 11.8193 43.9354 6.5828 43.8477 ZM 6.4643 43.2967 C 11.7069 42.7595 16.9529 42.372 22.1957 41.9725 L 21.8486 42.0664 L 23.4874 41.1053 C 24.0368 40.7891 24.5261 40.4075 25.048 40.0625 C 25.5739 39.7219 26.0094 39.2982 26.4948 38.9229 C 26.7401 38.7368 26.9271 38.5083 27.1458 38.3025 C 27.3483 38.0875 27.5896 37.8953 27.7604 37.6638 C 28.1342 37.2158 28.4886 36.7648 28.7538 36.2805 C 28.9201 36.0503 28.9934 35.7947 29.1096 35.5524 C 29.238 35.3118 29.2763 35.0575 29.3502 34.811 C 29.4414 34.5657 29.4242 34.3145 29.4753 34.0695 C 29.4617 33.8256 29.4965 33.576 29.439 33.3414 C 29.4129 33.1008 29.3446 32.869 29.2673 32.6467 C 29.194 32.4438 29.0521 32.1761 28.9916 32.0974 L 28.0099 30.7988 L 29.6712 30.4597 C 33.9711 29.5819 38.2832 28.8147 42.6285 28.1579 C 44.8012 27.8325 46.9765 27.5161 49.167 27.2499 C 50.2652 27.1213 51.3601 26.9895 52.4718 26.8972 C 53.579 26.7897 54.7039 26.7429 55.8883 26.767 L 56.7693 26.7837 L 56.7767 27.5842 C 56.8003 30.0331 56.3467 32.3805 55.6762 34.649 C 55.0039 36.9175 54.144 39.1195 53.1628 41.2657 C 52.6711 42.3403 52.1233 43.3892 51.581 44.438 C 51.0275 45.4835 50.4431 46.5144 49.8124 47.5222 C 49.1686 48.5271 48.4987 49.5049 47.7332 50.4523 C 47.3643 50.9426 46.9609 51.3846 46.5505 51.8159 C 46.1221 52.2819 45.601 52.671 45.059 52.9949 C 43.9737 53.6621 42.7717 54.0876 41.571 54.4645 C 40.3647 54.8336 39.1335 55.1123 37.8963 55.3421 C 35.4202 55.796 32.9176 56.0549 30.4152 56.2305 C 25.4046 56.5242 20.4001 56.2986 15.4329 55.946 L 15.359 55.9399 L 15.3182 55.9323 C 13.8438 55.6373 12.3865 55.1363 11.094 54.3616 C 9.8065 53.579 8.7035 52.5393 7.9103 51.3361 C 7.1015 50.139 6.622 48.7935 6.3903 47.442 C 6.1578 46.0905 6.1195 44.7225 6.3617 43.386 L 6.3765 43.3058 L 6.4643 43.2967 Z" fill="#673b10"/>
					</g>
					<g>
						<path d="M 6.4689 43.902 C 7.5501 43.7144 8.6327 43.5587 9.7163 43.4177 C 10.7999 43.2756 11.8817 43.1075 12.9668 42.9865 C 15.1354 42.723 17.308 42.5128 19.4807 42.3008 C 21.6552 42.1283 23.8279 41.9181 26.0054 41.791 C 28.1814 41.6379 30.3591 41.5065 32.5391 41.4111 C 33.0064 41.39 33.4192 41.6548 33.5874 42.0345 C 34.1768 43.3754 34.8725 44.7646 35.6544 46.0588 C 36.0545 46.7036 36.4716 47.342 36.9184 47.9536 C 37.1323 48.2684 37.3598 48.5725 37.6085 48.8571 C 37.8588 49.1387 38.0743 49.4609 38.3532 49.7136 L 39.1538 50.5189 L 40.0317 51.2318 C 40.33 51.4634 40.6713 51.6192 40.9924 51.8234 C 41.3085 52.0475 41.6792 52.1171 42.0304 52.2731 C 42.3815 52.4485 42.7619 52.4712 43.1463 52.5272 L 43.7293 52.606 L 44.3134 52.5422 C 44.7052 52.4939 45.1206 52.4939 45.4914 52.3335 L 46.6634 51.955 L 45.5962 52.577 C 45.2493 52.8282 44.8176 52.8828 44.4047 53.007 L 43.7731 53.1734 L 43.1163 53.193 C 42.6751 53.2007 42.2189 53.234 41.793 53.1069 C 41.3702 52.9963 40.8892 52.9751 40.5087 52.7647 C 40.1153 52.5816 39.6862 52.4318 39.3156 52.2108 L 38.2206 51.5209 C 37.8824 51.2649 37.5655 50.9866 37.2386 50.7156 C 36.8989 50.4523 36.6397 50.1344 36.3357 49.8455 C 36.0334 49.5549 35.757 49.2476 35.496 48.9297 C 34.9393 48.3152 34.48 47.6418 34.0061 46.9789 C 33.0802 45.632 32.2935 44.2547 31.6222 42.7457 L 32.6698 43.3694 C 30.4939 43.5269 28.3154 43.6462 26.1363 43.7448 C 23.958 43.8704 21.7745 43.9128 19.5929 43.9914 C 17.4096 44.0322 15.2257 44.0732 13.0392 44.0626 C 11.9459 44.067 10.8503 44.0249 9.7562 44.0081 C 8.6612 43.9929 7.5665 43.9641 6.4689 43.902 Z" fill="#934a16"/>
					</g>
					<g>
						<path d="M 32.6048 35.3497 C 32.5771 36.067 32.6602 36.5392 32.934 37.1929 C 33.077 37.5336 33.4306 37.6034 33.6672 37.3097 C 34.0061 36.8889 34.3655 36.5317 34.6449 36.073 C 34.462 36.1459 34.2792 36.2198 34.0963 36.2925 C 35.3921 36.6769 36.6209 36.4908 37.941 36.3033 C 39.1146 36.1367 40.6598 36.4908 41.6841 35.9807 C 41.8704 35.887 41.884 35.598 41.7685 35.4526 C 41.0485 34.5415 40.1438 34.6398 38.9823 34.7383 C 37.3671 34.876 35.9659 35.171 34.3582 34.7275 C 34.0411 34.6398 33.8321 34.8594 33.7239 35.1135 C 33.5299 35.572 33.2356 35.9628 32.9858 36.3923 C 33.2048 36.3879 33.424 36.3817 33.6429 36.3773 C 33.537 36.0292 33.4314 35.6812 33.3268 35.3345 C 33.268 34.7079 32.63 34.7217 32.6048 35.3497 L 32.6048 35.3497 Z" fill="#1c1c1a"/>
					</g>
					<g>
						<path d="M 42.7756 35.4299 C 42.9514 35.6932 43.1177 35.8932 43.383 36.0778 C 43.5154 36.17 43.7251 36.2063 43.8469 36.067 C 44.077 35.8053 44.407 35.2695 44.8534 35.3301 C 45.5987 35.4343 46.3271 35.3997 47.0763 35.3677 C 48.4477 35.3087 50.3709 35.7024 51.6136 35.2135 C 51.8907 35.1046 51.8469 34.6536 51.6607 34.4946 C 50.8724 33.8197 49.8173 33.8635 48.7768 33.7939 C 47.2836 33.6926 45.7946 33.7168 44.3014 33.7487 C 44.0617 33.7531 43.9349 33.9545 43.8503 34.133 C 43.6618 34.4446 43.4657 34.7535 43.2625 35.056 C 43.4104 34.9971 43.5576 34.9381 43.7057 34.8792 C 43.5845 34.7806 43.4626 34.6807 43.3416 34.5823 C 42.831 34.0057 42.5139 35.0363 42.7756 35.4299 L 42.7756 35.4299 Z" fill="#1c1c1a"/>
					</g>
					<g>
						<path d="M 31.4927 40.2079 C 33.2794 38.876 32.5754 39.5298 34.3386 39.8977 C 35.835 40.2108 37.424 40.1683 38.935 40.0173 C 42.1232 39.6978 45.2996 38.717 48.4768 38.5885 C 48.8533 38.5733 48.8328 37.8 48.4558 37.8015 C 46.0197 37.818 43.5983 37.8726 41.1639 38.0286 C 39.7673 38.1179 34.3408 39.1318 33.3063 38.0209 C 33.1437 37.8469 32.9103 37.7319 32.6975 37.924 C 31.7446 38.7866 31.918 38.605 31.141 39.5978 C 30.9743 39.8113 31.1433 40.4697 31.4927 40.2079 L 31.4927 40.2079 Z" fill="#1c1c1a"/>
					</g>
					<g>
						<path d="M 49.0669 39.2543 C 49.2882 39.3557 49.4117 39.3845 49.5402 39.5857 C 49.5654 39.1832 49.5914 38.7808 49.6173 38.3781 C 49.4508 38.496 49.3685 38.5808 49.2758 38.7548 C 49.2377 38.8262 49.0068 39.3649 49.1409 39.1576 C 48.9321 39.4828 48.936 39.9536 49.1702 40.2683 C 49.3751 40.5437 49.771 40.5635 49.9539 40.2502 C 50.0424 40.1021 50.2042 39.6871 50.1992 39.6917 C 50.5554 39.4163 50.5 38.8079 50.2766 38.4841 C 50.0263 38.1194 49.7247 37.9755 49.3092 37.8076 C 48.5956 37.5184 48.4718 38.9835 49.0669 39.2543 L 49.0669 39.2543 Z" fill="#1c1c1a"/>
					</g>
					<g>
						<path d="M 48.3557 41.635 C 46.3011 41.0947 44.299 41.5654 42.2092 41.5138 C 39.9258 41.4596 37.6664 41.6471 35.5237 42.4037 C 35.7252 42.5582 35.9275 42.7126 36.13 42.8684 C 36.0537 42.6461 35.9991 42.4205 35.9668 42.1889 C 35.9155 41.9331 35.7554 41.7181 35.4707 41.6804 C 34.424 41.5381 34.745 41.5002 33.7997 41.9196 C 33.5997 42.0073 33.5874 42.3781 33.7616 42.4947 C 34.3305 42.8776 35.0919 42.9424 35.261 43.4163 C 35.3334 43.6177 35.5759 43.8206 35.8145 43.7175 C 37.8629 42.8442 40.0082 42.5839 42.2336 42.4491 C 44.3275 42.3206 46.3019 42.9865 48.3777 42.4689 C 48.694 42.3901 48.6558 41.7137 48.3557 41.635 L 48.3557 41.635 Z" fill="#1c1c1a"/>
					</g>
					<g>
						<path d="M 35.9408 46.6142 C 37.5443 47.0137 39.2188 46.9821 40.8647 46.9366 C 42.8294 46.8821 44.5534 47.3587 46.4628 46.6294 C 47.0838 46.3917 46.9082 45.0009 46.144 45.1946 C 44.4039 45.6381 42.5847 45.1689 40.8209 45.2444 C 39.2066 45.3127 37.6387 45.697 36.0154 45.5306 C 35.5342 45.4821 35.5179 46.5096 35.9408 46.6142 L 35.9408 46.6142 Z" fill="#1c1c1a"/>
					</g>
					<g>
						<path d="M 38.4734 49.1357 C 38.4954 49.2097 38.5539 49.2841 38.5733 49.3474 C 38.6083 49.4609 38.671 49.6426 38.8172 49.6759 C 39.5293 49.8363 40.2688 49.8802 40.9949 49.9544 C 41.5688 50.0134 42.6887 49.9875 43.148 49.6378 C 43.2609 49.5518 43.235 49.3701 43.1715 49.2672 C 42.8286 48.715 42.0255 48.6908 41.3995 48.5983 C 40.5918 48.4773 39.7074 48.7571 38.8824 48.7375 C 38.7897 48.736 38.6862 48.8087 38.6482 48.8829 C 38.6221 48.9358 38.5824 48.9706 38.5278 48.9889 C 38.475 49.0131 38.4596 49.087 38.4734 49.1357 L 38.4734 49.1357 Z" fill="#1c1c1a"/>
					</g>
					<path opacity="0.2" d="M 38.1476 30.5172 C 38.1476 30.5172 40.5811 35.9294 47.2048 36.5575 C 48.1508 39.8311 39.6341 45.2429 36.2544 44.3607 C 32.8754 43.48 31.9283 41.9694 31.9283 41.9694 L 18.4104 46.3752 C 18.4104 46.3752 21.6552 53.6744 26.3866 54.6809 C 31.1175 55.6856 42.0677 56.4424 45.8523 52.4152 C 49.6375 48.3879 57.4782 33.0342 57.3431 28.8813 C 57.2082 25.1053 41.5263 28.3774 38.1476 30.5172 Z" fill="#1c1c1a"/>
					<path opacity="0.2" d="M 1.9588 17.2234 L 7.0493 44.2532 L 31.2312 36.5286 C 31.2312 36.5286 39.4351 39.7023 43.2528 39.7023 C 47.6365 39.2891 48.7679 41.4942 48.7679 41.4942 L 53.7172 31.8416 L 44.2413 29.0824 L 12.8474 37.2203 L 1.9588 17.2234 Z" fill="#422817"/>
					<g>
						<path d="M 45.2353 32.123 L 9.8148 41.5577 L 2.123 16.9374 L 37.5435 7.5042 L 45.2353 32.123 Z" fill="#ffffff"/>
						<path d="M 45.2638 32.2168 C 42.3676 33.1825 39.4659 34.1313 36.539 34.9971 C 33.6126 35.8688 30.6996 36.7798 27.7521 37.579 L 18.9289 40.0413 C 15.976 40.8239 13.0142 41.5775 10.0278 42.2495 L 9.9682 42.2631 C 9.5717 42.3524 9.1718 42.1268 9.0717 41.7592 C 7.9534 37.6107 6.9372 33.4352 5.6596 29.3309 C 5.0262 27.277 4.3321 25.2399 3.6712 23.1937 L 1.519 17.1007 C 1.4141 16.8041 1.5872 16.4847 1.9058 16.3879 L 1.9066 16.3879 L 1.9497 16.3743 C 7.79 14.5944 13.6691 12.9433 19.5523 11.3058 C 25.4331 9.6622 31.3164 8.0216 37.2477 6.5414 L 37.2771 6.5341 C 37.8402 6.3931 38.4198 6.7032 38.5758 7.224 C 39.809 11.3406 40.951 15.4828 42.124 19.6144 C 43.2382 23.7628 44.3558 27.9113 45.3362 32.0958 C 45.3482 32.1472 45.3168 32.1989 45.2638 32.2168 ZM 45.0987 32.052 C 43.5298 28.0625 42.0929 24.0367 40.655 20.0125 C 39.2643 15.9384 37.8418 11.8734 36.5113 7.7839 L 37.8394 8.4666 C 31.9635 10.1299 26.0397 11.6357 20.114 13.1356 C 14.191 14.6414 8.2631 16.1352 2.296 17.5002 L 2.7267 16.7737 L 4.4201 22.9912 C 5.0419 25.0479 5.6286 27.1136 6.2782 29.1642 C 7.564 33.2656 9.1125 37.2974 10.5576 41.3565 L 9.6017 40.8661 C 12.5189 39.9656 15.4606 39.147 18.4112 38.3569 L 27.2979 36.1019 C 30.254 35.3285 33.2436 34.6671 36.2218 33.9666 C 39.1619 33.2671 42.1279 32.6528 45.0987 32.052 Z" fill="#422817"/>
					</g>
					<g>
						<path d="M 5.2986 18.6414 L 35.8381 10.5111 L 42.0596 30.4191 L 11.5202 38.5504 L 5.2986 18.6414 Z" fill="#cee8ee"/>
						<path d="M 5.2743 18.5626 C 7.7738 17.7363 10.2764 16.9222 12.8011 16.179 C 15.324 15.4299 17.8372 14.6489 20.379 13.9604 L 27.9871 11.8401 C 30.5328 11.1666 33.0859 10.5159 35.6602 9.9332 L 35.7098 9.9224 C 36.0415 9.8468 36.3755 10.0359 36.4583 10.3434 C 37.359 13.6986 38.1734 17.0765 39.2074 20.3955 C 40.239 23.7145 41.3687 26.6885 42.5636 29.9635 C 42.6532 30.207 42.5124 30.2358 42.2497 30.2358 L 42.2465 30.2358 L 42.2042 30.5688 C 37.1671 32.0974 32.0976 33.6772 27.0248 35.0879 C 21.9527 36.5029 16.8805 37.9952 11.7672 39.274 L 11.7427 39.3209 C 11.2727 39.4388 10.7884 39.1999 10.6583 38.7639 C 9.6619 35.4343 8.7426 32.0943 7.7965 28.751 C 6.8992 25.3959 5.9993 22.0468 5.2148 18.6597 C 5.2043 18.6172 5.2312 18.578 5.2743 18.5626 ZM 5.4124 18.7003 C 6.6894 21.9241 7.8557 25.1764 9.0223 28.4304 C 10.1503 31.7235 11.3038 35.0092 12.3815 38.3175 L 11.2727 37.7469 C 16.3401 36.3154 21.447 35.0168 26.5548 33.7212 C 31.6619 32.4211 36.7722 31.1302 41.9151 29.9483 L 41.5557 30.5551 C 40.6763 27.1953 39.7326 23.8522 38.6904 20.5347 C 37.6507 17.2173 36.3917 13.9604 35.2179 10.6792 L 36.0154 11.0894 C 33.4997 11.8611 30.9627 12.5667 28.4187 13.2474 L 20.7578 15.1924 C 18.2096 15.8596 15.6329 16.4331 13.066 17.0385 C 10.5301 17.644 7.9737 18.1783 5.4124 18.7003 Z" fill="#2f585f"/>
					</g>
					<path d="M 38.4182 19.4662 C 37.9353 19.7779 37.5291 19.9914 36.9519 20.2684 C 36.3609 20.5497 35.8634 20.8284 35.1116 21.0342 C 34.3574 21.2429 33.755 21.5125 33.0291 21.7695 C 32.0368 22.1193 32.0015 22.2026 31.5287 21.0961 C 31.3831 21.5714 30.7898 22.4009 30.2151 22.5217 C 29.3071 22.7125 29.0771 21.9739 28.2163 22.1693 C 27.8465 22.2511 26.9296 23.0333 26.4152 23.2029 C 25.6942 23.4435 24.9495 23.6039 24.235 23.7886 C 24.3285 21.4777 27.7571 18.6143 29.6884 17.3853 C 30.8011 16.677 32.0359 16.577 33.1787 16.0702 C 33.8825 15.7552 36.1178 14.9895 36.3569 14.3538 C 36.4291 14.1648 36.4103 15.3542 36.582 15.4738 C 36.955 15.7388 37.1331 16.2273 37.194 16.6149 C 37.3793 17.8015 37.9198 18.3341 38.4182 19.4662 Z" fill="#a2c020"/>
					<path d="M 31.1977 28.2412 C 32.1154 30.3964 29.6762 31.2484 29.1251 33.1083 C 32.6795 30.6597 37.5452 32.0172 41.1192 29.5244 C 44.2021 27.374 39.0148 21.2931 38.6457 18.5703 C 36.6697 18.817 34.2506 19.6283 32.5391 20.6921 C 31.1441 21.5593 29.117 21.8666 29.2072 23.6993 C 29.2892 25.3566 30.5647 26.7518 31.1977 28.2412 Z" fill="#b07e49"/>
					<path d="M 10.7366 34.6323 C 14.3911 32.8086 18.1608 32.0791 21.638 30.8684 C 24.4935 29.8756 27.1783 29.1401 30.0719 28.5741 C 29.9241 29.6669 31.2684 29.744 31.201 30.6278 C 31.1741 30.9757 29.7697 32.4545 29.4509 32.8009 C 28.2935 34.0511 25.6144 33.9149 23.9652 34.4796 C 21.8568 35.2014 19.4556 35.7355 17.2253 36.2275 C 15.5077 36.6088 13.4374 37.9573 11.7377 37.9938 C 11.5263 37.1053 11.2266 34.7473 10.9819 36.229 L 10.7366 34.6323 Z" fill="#569fbb"/>
					<path d="M 13.0872 22.9108 C 15.7386 22.0284 13.1287 19.1742 11.1786 19.41 C 8.2542 19.7675 10.1577 23.8824 13.0872 22.9108 Z" fill="#f9d71e"/>
					<g>
						<path d="M 29.2445 32.9994 C 30.2809 32.0564 30.9987 30.9638 31.592 29.7379 C 31.6466 29.6259 31.6097 29.4261 31.4774 29.3732 C 29.5469 28.6041 30.4654 23.622 29.4745 21.8787 C 29.3826 21.7168 29.1493 21.576 29.0219 21.806 C 28.5332 22.6898 26.6371 23.0396 25.7201 23.3362 C 23.5424 24.0413 24.7114 22.9927 25.8763 21.7135 C 27.822 19.5781 30.5597 18.2979 32.8656 16.5712 C 32.9639 16.4968 32.9617 16.1367 32.7788 16.1746 C 28.8031 16.978 24.9553 20.5378 23.8076 24.1323 C 23.7702 24.2502 23.8026 24.5754 24.0188 24.5 C 25.5755 23.9459 27.2321 23.8128 28.7333 23.1091 C 29.5402 22.7292 29.1601 22.1603 29.5119 23.6976 C 29.7169 24.5908 29.7331 25.5609 29.8566 26.4688 C 29.9981 27.504 30.1321 28.4833 30.6685 29.4065 C 31.1636 30.2556 29.4162 31.4496 28.8878 32.5211 C 28.7999 32.6982 28.973 33.2477 29.2445 32.9994 L 29.2445 32.9994 Z" fill="#422817"/>
					</g>
					<g>
						<path d="M 31.5823 16.9464 C 33.1981 16.3379 34.7571 15.6871 36.4347 15.2361 C 36.791 15.1407 36.7267 14.2767 36.3242 14.3281 C 34.5816 14.5537 32.9966 15.9036 31.5365 16.7405 C 31.4604 16.7843 31.4732 16.9872 31.5823 16.9464 L 31.5823 16.9464 Z" fill="#422817"/>
					</g>
					<g>
						<path d="M 29.5161 23.1727 C 30.4281 22.9002 31.0223 22.2917 31.5734 21.5895 C 31.4677 21.5062 31.3611 21.4216 31.2548 21.3385 C 31.0198 23.834 33.4955 21.6864 34.7506 21.6545 C 34.9693 21.6487 34.9565 21.2825 34.8269 21.1869 C 34.3329 20.8221 33.8679 21.084 33.3754 21.3354 C 32.8332 21.6108 31.57 22.5884 31.623 21.4004 C 31.6301 21.24 31.4369 21.025 31.3003 21.2202 C 30.8117 21.921 30.2939 22.5144 29.4395 22.8304 C 29.2916 22.885 29.3363 23.2256 29.5161 23.1727 L 29.5161 23.1727 Z" fill="#422817"/>
					</g>
					<g>
						<path d="M 11.7208 34.2405 C 14.764 34.0391 17.2107 32.9327 19.9603 31.7599 C 23.2297 30.3645 26.7118 29.5352 30.0128 28.2244 C 30.1882 28.1533 30.1346 27.7432 29.9218 27.8127 C 26.949 28.792 23.8547 29.3611 20.8821 30.3447 C 17.7478 31.3829 14.8851 32.9994 11.6778 33.8907 C 11.5412 33.9286 11.564 34.2509 11.7208 34.2405 L 11.7208 34.2405 Z" fill="#422817"/>
					</g>
					<g>
						<path d="M 25.8575 28.777 C 25.1502 29.3944 24.0954 28.9418 23.427 28.5104 C 23.2102 28.3698 23.1655 28.7466 23.2465 28.8647 C 23.3418 29.0026 23.4133 29.0613 23.5643 29.1326 C 23.5742 28.9949 23.5839 28.8572 23.5928 28.7195 C 22.2031 28.6301 21.1999 28.7224 20.8139 30.1162 C 20.7797 30.2374 20.935 30.437 20.9909 30.2556 C 21.3952 28.9539 22.3874 29.0128 23.6045 29.1401 C 23.81 29.1611 23.7588 28.792 23.6328 28.727 C 23.5839 28.6799 23.5345 28.6345 23.4857 28.5891 C 23.4166 28.692 23.3484 28.7951 23.2793 28.8978 C 24.0927 29.5577 25.5055 30.3008 26.0355 29.0176 C 26.0719 28.9297 25.9995 28.6543 25.8575 28.777 L 25.8575 28.777 Z" fill="#422817"/>
					</g>
					<g>
						<path d="M 9.8755 20.2366 C 8.5189 20.2289 9.2198 21.8816 9.6114 22.4705 C 10.4999 23.8038 12.1656 24.4923 13.643 23.5524 C 15.2485 22.5294 14.9721 20.5574 13.3832 19.6993 C 12.1167 19.0167 9.4807 18.7065 9.1929 20.5347 C 9.1677 20.6965 9.2782 20.9917 9.497 20.8494 C 10.4627 20.223 11.2777 20.0035 12.4481 20.3636 C 12.941 20.5149 13.4221 20.7784 13.7609 21.1492 C 14.2479 21.6804 13.8408 22.1328 13.4105 22.5688 C 12.5605 23.4285 11.3654 23.2816 10.4502 22.6188 C 9.991 22.2857 8.5727 20.6497 9.8838 20.5211 C 10.0195 20.5076 10.0129 20.2366 9.8755 20.2366 L 9.8755 20.2366 Z" fill="#422817"/>
					</g>
					<g>
						<path d="M 31.8734 19.0515 C 32.2804 19.0515 32.2618 18.1979 31.8506 18.1979 C 31.4432 18.1979 31.4618 19.0515 31.8734 19.0515 L 31.8734 19.0515 Z" fill="#e23519"/>
					</g>
					<g>
						<path d="M 34.9165 17.8438 C 35.5618 17.8438 35.5318 16.4908 34.8807 16.4908 C 34.2353 16.4908 34.2654 17.8438 34.9165 17.8438 L 34.9165 17.8438 Z" fill="#e23519"/>
					</g>
					<g>
						<path d="M 36.7527 18.8155 C 37.2622 18.8155 37.2386 17.7471 36.7252 17.7471 C 36.2155 17.7471 36.239 18.8155 36.7527 18.8155 L 36.7527 18.8155 Z" fill="#e23519"/>
					</g>
					<g>
						<path d="M 30.3914 20.7723 C 30.4784 20.7723 30.4745 20.5907 30.3865 20.5907 C 30.2997 20.5907 30.3036 20.7723 30.3914 20.7723 L 30.3914 20.7723 Z" fill="#e23519"/>
					</g>
					<g>
						<path d="M 28.2 22.027 C 28.9139 22.027 28.8804 20.5317 28.1611 20.5317 C 27.4474 20.5317 27.4807 22.027 28.2 22.027 L 28.2 22.027 Z" fill="#e23519"/>
					</g>
					<g>
						<path d="M 30.1265 21.7787 C 30.6019 21.7787 30.58 20.7798 30.1005 20.7798 C 29.6251 20.7798 29.647 21.7787 30.1265 21.7787 L 30.1265 21.7787 Z" fill="#e23519"/>
					</g>
					<g>
						<path d="M 27.6946 23.7797 C 27.971 16.7178 34.8564 11.2212 43.0722 11.498 C 51.2877 11.7764 57.7244 17.7258 57.4482 24.7889 C 57.1719 31.8462 50.2863 37.3459 42.0702 37.0674 C 33.8549 36.7889 27.4181 30.8365 27.6946 23.7797 Z" fill="#c5c5c5"/>
						<path d="M 27.6489 23.7766 C 27.6489 23.7766 27.6774 23.4497 27.7302 22.8381 C 27.7898 22.2313 27.949 21.3231 28.3423 20.2336 C 28.765 19.1559 29.3549 17.8452 30.4085 16.5499 C 31.4497 15.2589 32.8998 13.9557 34.7856 12.9691 C 36.6617 11.9836 38.9449 11.2845 41.4214 11.1589 C 42.0442 11.1469 42.6546 11.1304 43.3122 11.1635 C 43.9316 11.2331 44.546 11.2527 45.1939 11.3981 C 46.4953 11.5889 47.7307 12.0201 48.9629 12.5073 C 51.3779 13.5805 53.6092 15.2074 55.2054 17.3565 C 56.8173 19.4858 57.7252 22.1193 57.6985 24.7952 C 57.6489 26.1088 57.3862 27.4601 56.9141 28.7195 C 56.4126 29.9739 55.6949 31.1409 54.8332 32.1972 C 53.0614 34.2841 50.6489 35.7841 48.1028 36.6589 C 45.5468 37.5001 42.8269 37.6744 40.4112 37.3672 C 37.9029 37.0416 35.7107 36.1792 33.911 35.0575 C 32.1106 33.9376 30.7662 32.5376 29.8305 31.1771 C 28.8812 29.8123 28.3934 28.465 28.0579 27.3619 C 27.753 26.245 27.6669 25.3353 27.6547 24.7223 C 27.6505 24.1063 27.6489 23.7766 27.6489 23.7766 ZM 27.7401 23.7826 C 27.7401 23.7826 27.7505 24.1063 27.771 24.7179 C 27.7976 25.3247 27.9067 26.2223 28.2358 27.3165 C 28.5715 28.4075 29.1828 29.6848 30.1721 30.9592 C 31.1596 32.2351 32.569 33.4656 34.3239 34.4613 C 36.0673 35.4587 38.2175 36.1896 40.4974 36.5 C 42.8652 36.7996 45.354 36.5681 47.7875 35.8251 C 50.1992 35.0425 52.4857 33.6562 54.2089 31.7264 C 55.0583 30.7595 55.7809 29.679 56.3044 28.5031 C 56.7987 27.3118 57.0937 26.0784 57.1979 24.7783 C 57.248 23.4949 57.1019 22.2055 56.7457 20.9598 C 56.3444 19.7281 55.7307 18.5672 54.9722 17.5065 C 53.3961 15.4132 51.1665 13.8423 48.7654 12.9281 C 47.5544 12.5121 46.3221 12.1442 45.1028 12.0186 C 44.5095 11.9051 43.8625 11.9141 43.2497 11.8643 C 42.671 11.8445 42.0532 11.8672 41.4711 11.887 C 39.1235 12.073 36.9528 12.6677 35.1285 13.5547 C 33.303 14.4387 31.8018 15.5721 30.719 16.7814 C 29.6324 17.9862 28.9226 19.2211 28.5049 20.2864 C 28.0927 21.3596 27.9172 22.239 27.8423 22.8473 C 27.7757 23.4585 27.7401 23.7826 27.7401 23.7826 Z" fill="#1c1c1a"/>
					</g>
					<g>
						<path d="M 41.046 24.2305 C 41.0735 23.5072 41.78 22.944 42.6229 22.9714 C 43.4657 23 44.1258 23.6101 44.0975 24.3348 C 44.069 25.0583 43.3636 25.6213 42.5205 25.5941 C 41.6775 25.5653 41.0176 24.9556 41.046 24.2305 Z" fill="#c5c5c5"/>
						<path d="M 41.0005 24.2259 C 41.0005 24.2274 41.0053 24.0972 41.0485 23.8507 C 41.0884 23.6024 41.1881 23.1864 41.6184 22.8564 C 41.8312 22.705 42.1232 22.6005 42.4311 22.6067 C 42.522 22.6125 42.5555 22.6067 42.6937 22.6248 L 42.8798 22.6869 C 42.9912 22.7155 43.1854 22.8154 43.3163 22.8865 C 43.8145 23.256 44.2138 23.6903 44.3477 24.344 C 44.4062 24.6225 44.3111 25.0281 44.1095 25.3066 C 43.8997 25.588 43.5983 25.788 43.2797 25.9255 C 42.9537 26.0344 42.5994 26.0875 42.293 26.0148 C 42.0588 25.9892 41.6532 25.8257 41.4955 25.6576 C 41.0981 25.2855 41.0304 24.8585 41.0144 24.615 C 40.9907 24.3667 41.0005 24.2259 41.0005 24.2259 ZM 41.0915 24.235 C 41.1078 24.2305 41.0759 24.3698 41.1819 24.5725 C 41.2175 24.6802 41.342 24.7739 41.4533 24.8691 C 41.5848 24.957 41.7499 25.0131 41.9142 25.0537 C 42.1263 25.0885 42.1556 25.1143 42.4165 25.1324 C 42.5994 25.1493 42.774 25.1189 42.9643 25.0933 C 43.1472 25.0447 43.3275 24.9614 43.482 24.8344 C 43.6291 24.6935 43.7479 24.5846 43.8469 24.3259 C 43.9022 24.1125 43.8885 23.8553 43.7405 23.6553 C 43.5942 23.4556 43.3519 23.3391 43.1188 23.3073 C 42.9912 23.3118 42.9431 23.2906 42.7928 23.3073 L 42.596 23.3241 C 42.6083 23.3314 42.5158 23.345 42.4839 23.3527 C 42.2944 23.371 42.1376 23.4268 41.9661 23.4512 C 41.8004 23.4889 41.6329 23.5358 41.4955 23.616 C 41.3759 23.7053 41.2452 23.7917 41.2039 23.8915 C 41.0826 24.0882 41.1078 24.2426 41.0915 24.235 Z" fill="#1c1c1a"/>
					</g>
					<g>
						<path d="M 41.7322 21.7227 L 38.2197 14.6171 C 38.2197 14.6171 42.8009 11.9141 46.7708 14.7579 C 46.1595 17.744 42.9537 23.7114 41.7322 21.7227 Z" fill="#6f6e6e"/>
						<path d="M 41.6914 21.7424 C 41.1159 20.5544 40.3404 19.4481 39.6519 18.3085 C 38.9668 17.1674 38.445 15.9567 37.9726 14.7231 L 37.8824 14.4885 L 38.0743 14.4025 C 38.7994 14.0798 39.5187 13.8528 40.2609 13.6561 C 41.003 13.4684 41.7597 13.3322 42.5361 13.2808 C 43.3114 13.2172 44.1095 13.2778 44.8817 13.467 C 45.2713 13.5594 45.6409 13.6986 46.0035 13.8619 C 46.3774 14.0059 46.6903 14.2448 47.0374 14.4356 L 47.2528 14.5537 L 47.2 14.8335 C 47.0471 15.6463 46.8139 16.4212 46.5066 17.1718 C 46.2083 17.924 45.8507 18.6549 45.4125 19.3452 C 44.9833 20.0414 44.4754 20.6996 43.8722 21.2869 C 43.5633 21.5743 43.2456 21.8589 42.8422 22.0449 C 42.6571 22.1495 42.4043 22.1949 42.1898 22.1434 C 41.9459 22.0891 41.8273 21.9028 41.6914 21.7424 ZM 41.7727 21.7032 C 41.9051 21.8453 42.0213 22.0043 42.2181 22.0361 C 42.3987 22.0739 42.596 22.0072 42.7536 21.8968 C 42.9318 21.8197 43.0495 21.641 43.1918 21.5154 L 43.5495 21.0507 C 43.9843 20.397 44.3048 19.6796 44.6485 18.9834 C 45.3077 17.579 45.9506 16.1381 46.3416 14.6823 L 46.5042 15.0803 C 45.9303 14.6958 45.3443 14.3023 44.6631 14.0844 C 44.0006 13.8348 43.2812 13.6638 42.5424 13.6486 C 41.806 13.6213 41.0549 13.7136 40.3445 13.9209 C 39.6374 14.1267 38.9449 14.4371 38.366 14.8306 L 38.467 14.5112 C 39.1658 15.6463 39.8145 16.8041 40.2998 18.0314 C 40.7818 19.2604 41.1778 20.5226 41.7727 21.7032 Z" fill="#1c1c1a"/>
					</g>
					<g>
						<path d="M 43.2584 27.4995 L 46.7708 34.6052 C 46.7708 34.6052 42.1898 37.3066 38.2197 34.4644 C 38.831 31.4783 42.0361 25.5109 43.2584 27.4995 Z" fill="#6f6e6e"/>
						<path d="M 43.2991 27.4799 C 43.8746 28.6678 44.6503 29.7727 45.3387 30.9138 C 46.0238 32.0549 46.5455 33.2656 47.018 34.4992 L 47.108 34.7338 L 46.9162 34.82 C 46.1914 35.1425 45.4719 35.3695 44.7297 35.5662 C 43.9876 35.7537 43.2309 35.8884 42.4546 35.9415 C 41.6792 36.0051 40.8811 35.9445 40.1086 35.7553 C 39.7204 35.6628 39.3497 35.5222 38.987 35.3604 C 38.6133 35.2166 38.3002 34.9773 37.9531 34.7867 L 37.7377 34.6686 L 37.7905 34.3888 C 37.9436 33.576 38.1768 32.8009 38.4839 32.0505 C 38.7822 31.2983 39.1399 30.5674 39.578 29.8756 C 40.0065 29.1809 40.5145 28.5226 41.1175 27.9354 C 41.4272 27.6479 41.745 27.3634 42.1482 27.1772 C 42.3335 27.0728 42.5863 27.0272 42.8009 27.0789 C 43.045 27.1332 43.1635 27.3195 43.2991 27.4799 ZM 43.2178 27.519 C 43.0855 27.377 42.9692 27.218 42.7725 27.1862 C 42.5919 27.1484 42.3945 27.2151 42.2369 27.3255 C 42.058 27.4026 41.94 27.5813 41.798 27.7069 L 41.4409 28.1716 C 41.0061 28.8253 40.6859 29.5427 40.342 30.2389 C 39.683 31.6433 39.04 33.084 38.649 34.54 L 38.4865 34.142 C 39.0603 34.5248 39.6463 34.9198 40.3276 35.1379 C 40.9899 35.3875 41.7092 35.557 42.4481 35.5735 C 43.1846 35.5995 43.9357 35.5087 44.6461 35.2996 C 45.3532 35.0938 46.0458 34.7852 46.6254 34.3917 L 46.5236 34.7111 C 45.8246 33.5743 45.1761 32.4182 44.6908 31.1909 C 44.2088 29.9617 43.8129 28.6997 43.2178 27.519 Z" fill="#1c1c1a"/>
					</g>
					<g>
						<path d="M 45.0759 22.8564 L 50.8032 17.134 C 50.8032 17.134 55.2273 20.0535 53.91 24.5527 C 50.7114 25.1583 43.5633 24.665 45.0759 22.8564 Z" fill="#6f6e6e"/>
						<path d="M 45.0412 22.829 C 46.0035 21.8816 46.8074 20.795 47.6788 19.7689 C 48.5525 18.7457 49.558 17.8362 50.6043 16.9615 L 50.8032 16.7949 L 50.9608 16.9266 C 51.5567 17.4292 52.0567 17.9619 52.5337 18.5278 C 53.0018 19.0955 53.4231 19.6948 53.7702 20.3441 C 54.1276 20.9873 54.3698 21.6985 54.4747 22.4357 C 54.5318 22.8048 54.5326 23.1772 54.5099 23.5524 C 54.508 23.928 54.3895 24.288 54.3318 24.6604 L 54.296 24.8904 L 53.9968 24.9523 C 53.132 25.1281 52.2736 25.2203 51.4112 25.2414 C 50.5505 25.2687 49.6887 25.2383 48.8348 25.1235 C 47.9812 25.0189 47.1334 24.8314 46.3213 24.5348 C 45.919 24.3773 45.5157 24.2107 45.1769 23.9353 C 45.0019 23.8159 44.8615 23.6145 44.8314 23.4102 C 44.7932 23.1802 44.933 23.0062 45.0412 22.829 ZM 45.1111 22.8835 C 45.0199 23.0516 44.9062 23.212 44.9491 23.3937 C 44.9799 23.5632 45.1206 23.7084 45.2899 23.802 C 45.4344 23.9263 45.6572 23.9611 45.8359 24.0353 L 46.4334 24.1669 C 47.2472 24.2925 48.0826 24.2971 48.9053 24.329 C 50.5505 24.3621 52.2273 24.3698 53.8229 24.1547 L 53.488 24.4454 C 53.6514 23.8053 53.8214 23.1514 53.7791 22.4809 C 53.7757 21.8166 53.6717 21.1325 53.4067 20.4893 C 53.1541 19.8445 52.7776 19.2332 52.3014 18.7003 C 51.828 18.1693 51.2567 17.691 50.6456 17.3413 L 51.0023 17.3065 C 50.1392 18.3403 49.2352 19.3375 48.2005 20.2216 C 47.1626 21.1038 46.0571 21.9241 45.1111 22.8835 Z" fill="#1c1c1a"/>
					</g>
					<g>
						<path d="M 39.9154 26.3644 L 34.1865 32.0883 C 34.1865 32.0883 29.7633 29.1688 31.0806 24.6694 C 34.28 24.0626 41.4272 24.5575 39.9154 26.3644 Z" fill="#6f6e6e"/>
						<path d="M 39.9502 26.3917 C 38.987 27.3391 38.184 28.4272 37.3119 29.4519 C 36.438 30.4764 35.4319 31.3859 34.3857 32.2607 L 34.1865 32.4272 L 34.0289 32.2941 C 33.4331 31.7931 32.934 31.2604 32.4567 30.6945 C 31.9887 30.1268 31.5668 29.5261 31.2205 28.8781 C 30.863 28.235 30.6199 27.5238 30.5159 26.7866 C 30.4589 26.4158 30.4581 26.045 30.4809 25.6699 C 30.4824 25.2943 30.6011 24.9329 30.659 24.5619 L 30.6946 24.3319 L 30.9937 24.2698 C 31.8586 24.0942 32.7169 24.0005 33.5794 23.9807 C 34.4401 23.952 35.3017 23.9824 36.1561 24.0972 C 37.0094 24.2034 37.8563 24.3909 38.6693 24.686 C 39.0717 24.8435 39.4748 25.0099 39.8137 25.2855 C 39.9885 25.4049 40.1292 25.6061 40.16 25.8105 C 40.1982 26.0406 40.0584 26.2146 39.9502 26.3917 ZM 39.8805 26.3373 C 39.9713 26.1692 40.0853 26.0088 40.0421 25.8271 C 40.0106 25.6576 39.8699 25.5122 39.7008 25.4185 C 39.5561 25.2943 39.3333 25.2595 39.1546 25.1855 L 38.5571 25.0537 C 37.7434 24.9281 36.9081 24.9252 36.0853 24.8933 C 34.4401 24.8585 32.7633 24.8525 31.1685 25.0691 L 31.5026 24.7769 C 31.3392 25.417 31.1693 26.0709 31.2118 26.7397 C 31.2148 27.4057 31.319 28.0896 31.5831 28.733 C 32.0909 30.0179 33.1046 31.1727 34.3441 31.881 L 33.9875 31.9158 C 34.8514 30.882 35.7545 29.8848 36.7902 29.0007 C 37.8282 28.1185 38.9335 27.2982 39.8805 26.3373 Z" fill="#1c1c1a"/>
					</g>
					<g>
						<path d="M 45.5435 25.5049 L 53.8895 26.4006 C 53.8895 26.4006 53.9894 31.4481 49.3173 33.1309 C 46.896 31.094 43.083 25.4443 45.5435 25.5049 Z" fill="#6f6e6e"/>
						<path d="M 45.5468 25.4624 C 46.9365 25.6213 48.3534 25.5789 49.7572 25.6228 C 51.1607 25.6699 52.5434 25.8846 53.9203 26.1496 L 54.183 26.1994 L 54.162 26.3962 C 54.0813 27.1407 53.9164 27.8309 53.7106 28.5243 C 53.4977 29.2128 53.2287 29.8848 52.8735 30.5295 C 52.529 31.1786 52.0581 31.7825 51.4835 32.2986 C 51.1976 32.5605 50.8763 32.7815 50.5391 32.9858 C 50.2125 33.2081 49.8301 33.3337 49.4752 33.5108 L 49.2538 33.6212 L 49.0238 33.4323 C 48.3591 32.8888 47.7689 32.3018 47.2397 31.6675 C 46.7048 31.038 46.2195 30.3751 45.8124 29.6669 C 45.397 28.9645 45.0565 28.2183 44.8314 27.4344 C 44.7282 27.0395 44.6323 26.6383 44.6705 26.2208 C 44.6705 26.0194 44.7607 25.7938 44.9192 25.6501 C 45.0962 25.4851 45.3288 25.4866 45.5468 25.4624 ZM 45.5402 25.5474 C 45.3409 25.5789 45.1345 25.5895 45.0037 25.7288 C 44.8753 25.8528 44.8331 26.0436 44.8526 26.2267 C 44.8306 26.4083 44.933 26.596 44.9744 26.7731 L 45.2158 27.2997 C 45.5898 27.9838 46.0813 28.6118 46.5422 29.2476 C 47.4885 30.5007 48.4777 31.7614 49.6109 32.8284 L 49.1597 32.7511 C 49.8099 32.4938 50.4764 32.232 51.0308 31.8037 C 51.6038 31.4056 52.1338 30.923 52.5331 30.3433 C 53.3423 29.2007 53.7391 27.7552 53.6171 26.4054 L 53.8578 26.6519 C 52.4524 26.6187 51.0536 26.5339 49.6759 26.2827 C 48.2972 26.0286 46.9326 25.6865 45.5402 25.5474 Z" fill="#1c1c1a"/>
					</g>
					<g>
						<path d="M 39.4479 23.7174 L 31.1003 22.82 C 31.1003 22.82 31.0012 17.7727 35.6731 16.0914 C 38.0955 18.1298 41.9076 23.778 39.4479 23.7174 Z" fill="#6f6e6e"/>
						<path d="M 39.4449 23.7599 C 38.0549 23.601 36.6373 23.6432 35.2335 23.598 C 33.8297 23.551 32.4463 23.3362 31.0694 23.071 L 30.8067 23.0212 L 30.828 22.8246 C 30.9085 22.0799 31.0736 21.3898 31.279 20.6965 C 31.4927 20.0095 31.7612 19.3375 32.117 18.6928 C 32.4608 18.0422 32.9322 17.4384 33.5072 16.9236 C 33.7931 16.6618 34.1141 16.4408 34.4515 16.235 C 34.7783 16.0127 35.1604 15.8885 35.5154 15.7113 L 35.7366 15.6011 L 35.9668 15.79 C 36.6316 16.3335 37.2217 16.9205 37.7508 17.5548 C 38.2858 18.1843 38.7709 18.8472 39.1773 19.5554 C 39.5936 20.2578 39.934 21.004 40.1592 21.7878 C 40.2626 22.183 40.3584 22.584 40.3209 23.0015 C 40.3201 23.2029 40.2307 23.4285 40.0723 23.5722 C 39.8952 23.7372 39.6627 23.7357 39.4449 23.7599 ZM 39.4512 23.6749 C 39.6503 23.6432 39.8567 23.6328 39.9878 23.4935 C 40.1153 23.3693 40.1575 23.1787 40.1389 22.9956 C 40.16 22.814 40.0576 22.6263 40.016 22.4478 L 39.7748 21.9226 C 39.4016 21.2371 38.9091 20.6105 38.4481 19.9747 C 37.5022 18.7216 36.5129 17.4609 35.3797 16.3939 L 35.8308 16.4712 C 35.1807 16.7283 34.5134 16.9901 33.9598 17.4171 C 33.3867 17.815 32.8567 18.2993 32.4575 18.879 C 31.6481 20.0216 31.2506 21.4656 31.3725 22.8154 L 31.1319 22.5688 C 32.5373 22.6019 33.9362 22.6869 35.3148 22.9396 C 36.6933 23.1937 38.059 23.5358 39.4512 23.6749 Z" fill="#1c1c1a"/>
					</g>
					<path d="M 49.5182 33.8772 C 49.5182 33.8772 44.7859 41.4807 48.068 45.1781 C 51.3502 48.8739 56.0076 50.0815 56.0076 50.0815 L 62.4957 43.6129 C 62.4957 43.6129 45.4719 45.5322 55.0144 30.1814 C 51.7323 32.739 49.4417 33.7333 49.4417 33.7333 L 49.5182 33.8772 Z" fill="#423831"/>
					<g>
						<path d="M 54.9633 30.7505 C 52.7216 33.9545 50.7334 36.5846 52.4388 40.4423 C 53.6278 43.1334 57.8917 45.0569 60.8481 44.0172 C 61.4813 43.7946 61.4027 42.5626 60.8042 42.3478 C 58.6919 41.5896 56.5337 42.3433 54.5138 40.9993 C 50.6553 38.4325 53.6481 33.8318 55.0779 30.8684 C 55.1096 30.8034 55.0308 30.6534 54.9633 30.7505 L 54.9633 30.7505 Z" fill="#1c1c1a"/>
					</g>
					<g>
						<path d="M 49.3126 34.3796 C 47.1901 37.5441 44.577 41.3929 46.9212 45.1537 C 48.5873 47.828 52.4468 50.9199 55.929 50.9003 C 56.1175 50.8987 56.302 50.7656 56.3874 50.6156 C 56.4688 50.475 56.55 50.3342 56.6311 50.1919 C 56.7645 49.9604 56.7515 49.6547 56.5451 49.4624 C 55.8883 48.8479 55.2608 49.0629 54.344 48.8087 C 52.7474 48.3682 51.3552 47.2666 50.1181 46.272 C 45.7807 42.7882 48.173 38.9639 49.7677 34.8548 C 49.867 34.599 49.5815 33.9786 49.3126 34.3796 L 49.3126 34.3796 Z" fill="#1c1c1a"/>
					</g>
					<g>
						<path d="M 55.6094 50.3918 C 56.4354 50.917 61.0237 45.1052 61.605 44.4061 C 62.1225 43.781 61.4097 42.2208 60.6394 43.1075 C 59.9981 43.8491 54.5292 49.7048 55.6094 50.3918 L 55.6094 50.3918 Z" fill="#1c1c1a"/>
					</g>
					<g>
						<path d="M 27.6946 22.0739 C 27.971 15.0107 34.8564 9.5139 43.0722 9.7922 C 51.2877 10.0709 57.7244 16.02 57.4482 23.0833 C 57.1719 30.1406 50.2863 35.6403 42.0702 35.3618 C 33.8549 35.0835 27.4181 29.1311 27.6946 22.0739 Z" fill="#c5c5c5"/>
						<path d="M 27.6036 22.0678 C 27.6036 22.0678 27.6319 21.7395 27.6855 21.1279 C 27.7455 20.5226 27.9131 19.61 28.2715 18.5037 C 28.674 17.414 29.2208 16.0717 30.2532 14.7291 C 31.2701 13.3928 32.7025 12.017 34.6077 10.9623 C 36.4997 9.8983 38.8611 9.2021 41.3948 9.0704 C 42.0393 9.0675 42.6457 9.0613 43.3432 9.1052 C 43.9648 9.1869 44.5631 9.2202 45.2394 9.3806 C 46.5807 9.6062 47.8178 10.0693 49.0614 10.5915 C 51.49 11.7401 53.6886 13.423 55.3208 15.5751 C 56.9547 17.7196 57.9122 20.3697 57.9497 23.097 C 57.9372 24.4165 57.7041 25.8315 57.2496 27.1332 C 56.749 28.4272 56.025 29.635 55.1495 30.7278 C 53.3457 32.8903 50.8756 34.4507 48.2614 35.3695 C 45.6456 36.2473 42.8091 36.4652 40.3656 36.114 C 37.7533 35.7432 35.5171 34.8671 33.6996 33.6577 C 31.8862 32.4607 30.5678 30.9865 29.6599 29.5804 C 28.7349 28.17 28.2935 26.7928 27.9797 25.6759 C 27.7099 24.5438 27.6189 23.6343 27.6076 23.0183 C 27.6042 22.4009 27.6036 22.0678 27.6036 22.0678 ZM 27.7856 22.0799 C 27.7856 22.0799 27.7968 22.4023 27.818 23.0106 C 27.8457 23.6145 27.9499 24.5121 28.314 25.5909 C 28.6706 26.6702 29.3282 27.9156 30.3436 29.1447 C 31.3578 30.3751 32.7934 31.5313 34.5352 32.4501 C 36.261 33.3596 38.3677 34.0768 40.5421 34.3434 C 42.8838 34.5975 45.2555 34.41 47.6299 33.7031 C 49.9733 32.9646 52.2021 31.6387 53.8943 29.7833 C 55.5956 27.9204 56.6907 25.6107 56.9466 23.0637 C 57.0237 21.806 56.9083 20.5347 56.5815 19.2996 C 56.1954 18.0814 55.598 16.9312 54.856 15.8765 C 53.3165 13.7847 51.0528 12.2715 48.6663 11.4329 C 47.4665 11.0531 46.2352 10.7155 45.0565 10.6232 C 44.4916 10.5265 43.8275 10.5474 43.217 10.5111 C 42.6781 10.5038 42.0571 10.534 41.4972 10.5627 C 39.2059 10.7429 37.1128 11.3406 35.3049 12.1503 C 33.4981 12.966 31.9797 14.0269 30.8734 15.1893 C 29.7655 16.35 29.0128 17.5502 28.5749 18.6036 C 28.1278 19.6616 27.961 20.5361 27.887 21.1462 C 27.8212 21.756 27.7856 22.0799 27.7856 22.0799 Z" fill="#1c1c1a"/>
					</g>
					<g>
						<path d="M 41.046 22.5248 C 41.0735 21.8014 41.78 21.2385 42.6229 21.2656 C 43.4657 21.2946 44.1258 21.9043 44.0975 22.6294 C 44.069 23.3527 43.3636 23.9157 42.5205 23.8884 C 41.6775 23.8597 41.0176 23.2498 41.046 22.5248 Z" fill="#c5c5c5"/>
						<path d="M 41.0005 22.5203 C 41.0005 22.5203 41.0053 22.3917 41.0485 22.1451 C 41.0884 21.8968 41.1881 21.4806 41.6184 21.1506 C 41.8312 20.9994 42.1232 20.895 42.4311 20.9009 C 42.522 20.9069 42.5555 20.9009 42.6937 20.919 L 42.8798 20.9811 C 42.9912 21.01 43.1854 21.1098 43.3163 21.1808 C 43.8145 21.5518 44.2138 21.9845 44.3477 22.6385 C 44.4062 22.9169 44.3111 23.3226 44.1095 23.601 C 43.8997 23.8824 43.5983 24.0822 43.2797 24.2198 C 42.9537 24.329 42.5994 24.3819 42.293 24.3092 C 42.0588 24.2821 41.6532 24.1201 41.4955 23.952 C 41.0981 23.5797 41.0304 23.1529 41.0144 22.9094 C 40.9907 22.6596 41.0005 22.5203 41.0005 22.5203 ZM 41.0915 22.5294 C 41.1078 22.5248 41.0759 22.6642 41.1819 22.8667 C 41.2175 22.9744 41.342 23.0681 41.4533 23.1635 C 41.5848 23.2512 41.7499 23.3073 41.9142 23.3481 C 42.1263 23.3831 42.1556 23.4102 42.4165 23.4285 C 42.5994 23.4435 42.774 23.4133 42.9643 23.3875 C 43.1472 23.3391 43.3275 23.256 43.482 23.1285 C 43.6291 22.9879 43.7479 22.879 43.8469 22.6202 C 43.9022 22.4067 43.8885 22.1495 43.7405 21.9497 C 43.5942 21.7499 43.3519 21.6333 43.1188 21.6016 C 42.9912 21.6062 42.9431 21.585 42.7928 21.6033 L 42.596 21.6183 C 42.6083 21.626 42.5158 21.6395 42.4839 21.647 C 42.2944 21.6652 42.1376 21.7212 41.9661 21.7454 C 41.8004 21.7831 41.6329 21.8303 41.4955 21.9105 C 41.3759 21.9997 41.2452 22.0859 41.2039 22.1859 C 41.0826 22.3826 41.1078 22.5369 41.0915 22.5294 Z" fill="#1c1c1a"/>
					</g>
					<path d="M 46.1498 13.532 L 46.6365 13.9846 C 46.6365 13.9846 45.8637 18.8367 42.6571 19.716 C 42.1417 19.8491 41.5696 18.7563 41.5696 18.7563 C 41.5696 18.7563 42.1417 19.716 42.6854 19.4223 C 43.2301 19.1288 45.6914 16.2244 46.1498 13.532 Z" fill="#ffffff"/>
					<path d="M 42.3995 26.431 C 42.3995 26.431 42.9146 26.1117 43.3733 26.5914 C 43.8308 27.0712 46.579 32.2153 46.579 32.2153 C 46.579 32.2153 42.5139 35.0938 38.9643 32.108 C 40.6242 32.9873 44.085 33.2202 45.718 32.1187 C 45.2336 30.9622 42.9146 26.431 42.3995 26.431 Z" fill="#ffffff"/>
					<path d="M 52.1549 22.7504 L 51.8802 23.3362 C 51.8802 23.3362 46.7486 24.444 44.6958 21.9891 C 44.3738 21.5912 45.2574 20.6951 45.2574 20.6951 C 45.2574 20.6951 44.5071 21.5427 44.9988 21.9058 C 45.4922 22.269 49.2971 23.3376 52.1549 22.7504 Z" fill="#ffffff"/>
					<path d="M 39.721 24.2244 C 39.721 24.2244 40.2291 24.5544 39.9177 25.1281 C 39.6056 25.6986 35.4716 29.965 35.4716 29.965 C 35.4716 29.965 31.105 27.4965 32.7885 23.3285 C 32.5179 25.0885 33.5519 28.1716 35.2521 29.184 C 36.2299 28.3394 39.9097 24.671 39.721 24.2244 Z" fill="#ffffff"/>
					<g>
						<path d="M 41.9012 19.1453 L 39.1658 13.6138 C 39.1658 13.6138 42.7334 11.5101 45.8238 13.7242 C 45.3482 16.0473 42.8521 20.6936 41.9012 19.1453 Z" fill="#6f6e6e"/>
						<path d="M 41.8695 19.1605 C 41.4214 18.2358 40.8176 17.3746 40.2812 16.4877 C 39.7479 15.5994 39.3417 14.6566 38.9734 13.697 L 38.9026 13.5124 L 39.0529 13.4474 C 39.6188 13.202 40.1786 13.022 40.7583 12.8798 C 41.0493 12.8162 41.3296 12.715 41.6304 12.6906 C 41.9279 12.6604 42.2222 12.5817 42.5236 12.5817 L 43.4382 12.5754 C 43.7413 12.6044 44.0403 12.6815 44.3453 12.7406 C 44.6581 12.7845 44.9402 12.9025 45.2092 13.0508 L 46.0313 13.473 L 46.2009 13.5609 L 46.1579 13.7832 C 45.915 15.0424 45.4281 16.2079 44.7704 17.2974 C 44.4371 17.8394 44.0332 18.3477 43.5675 18.8063 C 43.3267 19.0303 43.0789 19.2513 42.7653 19.3965 C 42.6213 19.4783 42.4245 19.5131 42.2572 19.4738 C 42.0677 19.4298 41.975 19.2861 41.8695 19.1605 ZM 41.9329 19.1302 C 42.0361 19.2408 42.1263 19.3648 42.2792 19.3892 C 42.4198 19.4177 42.5733 19.3665 42.6961 19.2815 C 42.9568 19.1259 43.1357 18.8622 43.3163 18.6216 C 43.6577 18.1162 43.8989 17.5532 44.1666 17.0114 C 44.6891 15.9217 45.1833 14.7972 45.4896 13.6653 L 45.6167 13.9755 L 44.915 13.5653 C 44.6891 13.4095 44.4485 13.2793 44.1744 13.2203 C 43.9104 13.1416 43.6519 13.0266 43.378 12.9629 L 42.5286 12.8677 C 42.2416 12.8237 41.9556 12.8964 41.6687 12.9116 C 41.3785 12.9252 41.0981 13.0008 40.8209 13.0795 C 40.2626 13.2156 39.739 13.4926 39.2798 13.7803 L 39.3586 13.532 C 39.9024 14.4158 40.4078 15.3163 40.786 16.2712 C 41.1614 17.2278 41.4695 18.2116 41.9329 19.1302 Z" fill="#1c1c1a"/>
					</g>
					<g>
						<path d="M 43.0708 26.761 L 45.718 32.1187 C 45.718 32.1187 42.2653 34.1555 39.2717 32.011 C 39.7326 29.7606 42.149 25.2626 43.0708 26.761 Z" fill="#6f6e6e"/>
						<path d="M 43.1017 26.7458 C 43.5348 27.6419 44.1202 28.4756 44.6386 29.3354 C 45.1558 30.1949 45.5482 31.109 45.9043 32.0385 L 45.9725 32.2168 L 45.8277 32.2805 C 45.2799 32.5167 44.7379 32.6921 44.1761 32.8298 C 43.895 32.8903 43.6227 32.9888 43.3317 33.0129 C 43.0442 33.0417 42.7586 33.1175 42.4669 33.1175 L 41.5808 33.1235 C 41.2882 33.0961 40.998 33.0221 40.7036 32.9646 C 40.4 32.9207 40.1275 32.8071 39.8666 32.6636 L 39.0709 32.2549 L 38.906 32.1699 L 38.9481 31.9535 C 39.1854 30.7368 39.6503 29.6031 40.2957 28.5529 C 40.6192 28.0277 41.0021 27.5313 41.4566 27.0895 C 41.69 26.8729 41.9295 26.6595 42.2336 26.5189 C 42.3735 26.4387 42.5636 26.4054 42.7259 26.4431 C 42.9091 26.4856 42.9992 26.6248 43.1017 26.7458 ZM 43.04 26.776 C 42.9399 26.6687 42.8521 26.5491 42.704 26.5248 C 42.5685 26.4977 42.4198 26.546 42.3002 26.6293 C 42.0482 26.7808 41.8743 27.0349 41.7003 27.2678 C 41.3728 27.7598 41.1315 28.3016 40.872 28.8268 C 40.3747 29.8848 39.8903 30.9713 39.5952 32.0685 L 39.4724 31.7675 L 40.1519 32.1641 C 40.3705 32.3168 40.6031 32.4409 40.8679 32.4999 C 41.124 32.5757 41.3743 32.6876 41.6404 32.7482 L 42.462 32.8405 C 42.74 32.8829 43.0173 32.813 43.2951 32.798 C 43.5764 32.7859 43.8477 32.7134 44.1161 32.6361 C 44.6566 32.5028 45.1639 32.2366 45.6085 31.9581 L 45.5321 32.1989 C 45.0052 31.3421 44.5162 30.4689 44.1503 29.5442 C 43.7868 28.618 43.4886 27.6659 43.04 26.776 Z" fill="#1c1c1a"/>
					</g>
					<g>
						<path d="M 45.9083 20.9858 L 50.5 16.3969 C 50.5 16.3969 54.0473 18.7382 52.9906 22.3448 C 50.426 22.8321 44.695 22.4342 45.9083 20.9858 Z" fill="#6f6e6e"/>
						<path d="M 45.8806 20.9631 C 46.6521 20.2047 47.2959 19.3331 47.9948 18.5097 C 48.6955 17.6896 49.5021 16.9601 50.3407 16.2592 L 50.5016 16.1246 L 50.6262 16.2321 C 51.0983 16.6375 51.5023 17.0628 51.8738 17.5215 C 52.0525 17.756 52.2662 17.965 52.4085 18.2222 C 52.555 18.4733 52.7515 18.7034 52.8695 18.9713 L 53.2336 19.7795 C 53.322 20.0595 53.3604 20.356 53.4189 20.6482 C 53.4963 20.9434 53.4863 21.24 53.4391 21.5366 L 53.3287 22.4311 L 53.306 22.6157 L 53.0606 22.6642 C 51.6779 22.941 50.2935 22.9652 48.9216 22.8079 C 48.2363 22.7246 47.5583 22.5657 46.9072 22.3311 C 46.5838 22.2055 46.2603 22.0724 45.9888 21.8499 C 45.849 21.7545 45.7369 21.5941 45.7117 21.4293 C 45.6817 21.2444 45.7938 21.1067 45.8806 20.9631 ZM 45.9361 21.0084 C 45.8637 21.1431 45.7727 21.2719 45.8066 21.4154 C 45.8318 21.5518 45.944 21.6683 46.0798 21.7439 C 46.3416 21.9149 46.6804 21.9709 46.9967 22.0361 C 47.6485 22.1405 48.3192 22.1343 48.9783 22.1603 C 50.2969 22.198 51.6421 22.1965 52.9205 22.0255 L 52.6524 22.2584 L 52.7971 21.476 C 52.8695 21.2158 52.9075 20.951 52.8612 20.6859 C 52.8378 20.4211 52.8556 20.1458 52.8126 19.8781 L 52.5784 19.0878 C 52.5104 18.817 52.3241 18.5916 52.1963 18.3416 C 52.0697 18.0889 51.8835 17.871 51.694 17.6563 C 51.3358 17.2142 50.8479 16.857 50.374 16.5635 L 50.6592 16.5362 C 49.9678 17.364 49.2435 18.1646 48.4135 18.873 C 47.5819 19.5796 46.6951 20.238 45.9361 21.0084 Z" fill="#1c1c1a"/>
					</g>
					<g>
						<path d="M 38.7384 25.181 L 34.3946 29.5215 C 34.3946 29.5215 31.0392 27.3059 32.0391 23.8945 C 34.4662 23.4345 39.8853 23.8112 38.7384 25.181 Z" fill="#6f6e6e"/>
						<path d="M 38.7644 25.202 C 38.0344 25.9194 37.4256 26.7441 36.7649 27.5223 C 36.1017 28.2987 35.3392 28.9886 34.5459 29.6515 L 34.393 29.7802 L 34.2751 29.6775 C 33.829 29.293 33.4468 28.8903 33.0959 28.4576 C 32.9267 28.2365 32.7244 28.0383 32.5895 27.7944 C 32.4513 27.5569 32.2652 27.3391 32.1538 27.0849 L 31.809 26.3206 C 31.7252 26.0557 31.6888 25.7772 31.6334 25.4987 C 31.5611 25.2203 31.57 24.9404 31.6147 24.6589 L 31.7188 23.8128 L 31.7407 23.6372 L 31.9732 23.5918 C 33.2811 23.3329 34.5905 23.3043 35.8878 23.4618 C 36.5357 23.5403 37.1778 23.6826 37.7939 23.9082 C 38.0987 24.0276 38.4043 24.1532 38.6621 24.3638 C 38.7936 24.4546 38.901 24.6058 38.9238 24.7617 C 38.9531 24.9358 38.8472 25.0674 38.7644 25.202 ZM 38.7123 25.1599 C 38.7806 25.0327 38.8668 24.9116 38.8344 24.7739 C 38.8108 24.6452 38.7042 24.5348 38.5758 24.4637 C 38.3279 24.3032 38.0077 24.2502 37.7086 24.1882 C 37.0916 24.0913 36.4583 24.0882 35.834 24.0657 C 34.5866 24.0384 33.3152 24.0338 32.1057 24.1971 L 32.3593 23.9763 L 32.2219 24.7164 C 32.1538 24.9629 32.1178 25.2126 32.1609 25.4639 C 32.1839 25.7151 32.1667 25.9755 32.2072 26.2281 L 32.4294 26.976 C 32.4935 27.2316 32.669 27.4451 32.7902 27.6813 C 32.9103 27.9204 33.0859 28.1277 33.2647 28.3304 C 33.6046 28.748 34.0653 29.0857 34.5142 29.364 L 34.2434 29.3898 C 34.8985 28.6074 35.5837 27.8506 36.3689 27.1803 C 37.1559 26.5112 37.9936 25.8892 38.7123 25.1599 Z" fill="#1c1c1a"/>
					</g>
					<g>
						<path d="M 46.1367 24.2894 L 52.941 25.0204 C 52.941 25.0204 53.0221 29.134 49.2141 30.5051 C 47.2389 28.8449 44.1314 24.2396 46.1367 24.2894 Z" fill="#6f6e6e"/>
						<path d="M 46.1393 24.2546 C 47.2723 24.385 48.4271 24.3502 49.5718 24.3865 C 50.7162 24.4242 51.8438 24.5998 52.9662 24.8146 L 53.1814 24.8571 L 53.1628 25.0175 C 53.0896 25.6213 52.9597 26.1859 52.7801 26.7458 C 52.6832 27.0228 52.628 27.3118 52.4884 27.5751 C 52.3541 27.8386 52.2703 28.1277 52.1061 28.3789 L 51.6152 29.1432 C 51.4226 29.3792 51.186 29.5881 50.9634 29.809 C 50.7503 30.0452 50.4853 30.2162 50.195 30.3583 L 49.3424 30.8138 L 49.1662 30.9094 L 48.9752 30.752 C 47.898 29.865 47.0422 28.8253 46.3521 27.6842 C 46.0124 27.1122 45.7441 26.4991 45.5563 25.8619 C 45.4727 25.5397 45.3947 25.2126 45.4256 24.8723 C 45.4256 24.7087 45.4988 24.5256 45.6279 24.4077 C 45.7719 24.2729 45.9611 24.2744 46.1393 24.2546 ZM 46.1343 24.3244 C 45.9717 24.3502 45.8035 24.3575 45.6969 24.4725 C 45.5923 24.5725 45.558 24.7285 45.5735 24.8783 C 45.5816 25.1795 45.7369 25.4716 45.8701 25.753 C 46.1709 26.3131 46.5807 26.8199 46.9559 27.3376 C 47.7185 28.3652 48.5314 29.3884 49.4532 30.2585 L 49.0857 30.1964 L 49.8604 29.8346 C 50.1334 29.7319 50.3887 29.6017 50.5951 29.4065 C 50.8136 29.2278 51.0658 29.0751 51.2753 28.8813 L 51.828 28.226 C 52.0267 28.011 52.1127 27.734 52.2542 27.4859 C 52.3994 27.2378 52.4801 26.9639 52.555 26.6898 C 52.7271 26.1496 52.7457 25.5638 52.719 25.0251 L 52.9158 25.2247 C 51.7697 25.1976 50.6293 25.1295 49.5052 24.9237 C 48.3817 24.7164 47.2692 24.4377 46.1343 24.3244 Z" fill="#1c1c1a"/>
					</g>
					<g>
						<path d="M 38.5369 21.2612 L 32.556 20.6178 C 32.556 20.6178 32.4844 17.0022 35.8308 15.7963 C 37.568 17.2567 40.299 21.3052 38.5369 21.2612 Z" fill="#6f6e6e"/>
						<path d="M 38.5344 21.2914 C 37.5386 21.1763 36.5234 21.2081 35.5171 21.1763 C 34.5117 21.1415 33.52 20.9873 32.5341 20.798 L 32.3423 20.7617 L 32.3609 20.6211 C 32.4317 20.0912 32.5291 19.5919 32.6933 19.0999 C 32.7843 18.8578 32.8307 18.6036 32.9544 18.372 C 33.0713 18.1404 33.1452 17.8877 33.2892 17.6667 L 33.7208 16.9932 C 33.8899 16.7858 34.0979 16.6028 34.2931 16.4091 C 34.4808 16.2002 34.714 16.0504 34.9685 15.9248 L 35.7178 15.5238 L 35.8733 15.4403 L 36.0406 15.5798 C 36.9858 16.3606 37.7442 17.2717 38.3433 18.2781 C 38.6407 18.7823 38.8848 19.3163 39.0464 19.8781 C 39.1205 20.1622 39.1885 20.4484 39.1619 20.7482 C 39.1619 20.8936 39.0977 21.0538 38.9837 21.1567 C 38.8571 21.2762 38.6912 21.2748 38.5344 21.2914 ZM 38.5394 21.2308 C 38.6821 21.2081 38.8294 21.2006 38.9238 21.1008 C 39.0156 21.0115 39.0458 20.8752 39.0317 20.7436 C 39.0245 20.4786 38.888 20.2216 38.7709 19.9747 C 38.5028 19.4844 38.1507 19.0334 37.82 18.5795 C 37.142 17.6804 36.433 16.777 35.6211 16.0127 L 35.944 16.0685 L 35.2626 16.3864 C 35.0231 16.4756 34.7986 16.5908 34.6172 16.7631 C 34.4254 16.9191 34.2035 17.0538 34.0198 17.2234 L 33.533 17.7998 C 33.3598 17.9891 33.2843 18.2327 33.1592 18.4507 C 33.0324 18.6703 32.9591 18.9094 32.899 19.1513 C 32.7544 19.6266 32.7202 20.1397 32.7511 20.6149 L 32.5788 20.4378 C 33.5858 20.4622 34.5882 20.5226 35.5759 20.7028 C 36.5632 20.8859 37.5419 21.131 38.5394 21.2308 Z" fill="#1c1c1a"/>
					</g>
					<path d="M 28.2577 25.4716 C 28.2577 25.4716 25.5089 14.5446 38.0483 11.1879 C 48.7549 8.3091 54.0221 14.9185 54.652 15.7173 C 51.217 13.4261 47.7243 9.6941 38.2197 11.8795 C 29.2308 14.1194 28.5441 24.5665 28.2577 25.4716 Z" fill="#ffffff"/>
					<path opacity="0.2" d="M 42.7245 18.9501 C 42.7245 18.9501 40.5859 14.4025 40.7388 14.0465 C 40.8923 13.6924 44.5573 14.1194 44.9386 14.9001 C 45.7011 14.9714 45.7011 13.9755 45.7011 13.9755 C 45.7011 13.9755 45.0915 12.1261 40.1292 13.1218 C 40.968 11.4164 41.3498 10.068 41.5791 10.068 C 41.8085 10.068 54.4805 9.9255 57.1522 20.0883 C 57.8398 27.3376 55.0144 30.6763 54.2513 31.6719 C 53.488 32.668 49.3662 39.8461 54.404 42.1904 C 59.4429 44.5363 60.5117 44.5363 60.5117 44.5363 C 60.5117 44.5363 58.6023 47.9474 58.3739 47.9474 C 58.1447 47.9474 50.0531 42.1208 50.2822 43.9687 C 50.5107 45.8151 49.2898 46.8821 49.2898 46.8821 C 49.2898 46.8821 44.2502 43.1848 48.2964 36.5756 C 45.5482 36.6469 32.8762 39.634 28.296 27.3376 C 30.9677 30.0375 37.6867 36.223 41.503 35.0137 C 45.319 33.8045 40.8923 32.8101 40.8923 32.8101 C 40.8923 32.8101 41.349 28.1185 43.0293 27.4799 C 42.5716 26.8397 42.6482 26.3417 42.6482 26.3417 L 45.7011 32.0989 L 43.8689 32.524 C 43.8689 32.524 50.6642 18.3114 42.7245 18.9501 Z" fill="#1c1c1a"/>
					<path opacity="0.2" d="M 35.3189 28.1929 C 35.0132 28.0504 33.1803 25.4203 33.9445 25.2068 C 34.7084 24.9933 38.4489 25.3489 38.4489 25.3489 C 38.4489 25.3489 39.5944 24.1426 37.7614 23.999 C 35.9291 23.8568 31.9602 24.0701 31.9602 24.0701 C 31.9602 24.0701 31.4252 27.2678 34.0971 29.4715 C 35.0132 29.4715 35.3189 28.1929 35.3189 28.1929 Z" fill="#1c1c1a"/>
					<path opacity="0.2" d="M 32.5707 20.5165 C 32.5707 20.5165 33.1054 16.0398 35.8537 16.0398 C 37.533 17.5321 38.1434 18.7399 38.1434 18.7399 C 38.1434 18.7399 36.0057 17.0341 35.3189 18.5264 C 34.6321 20.0187 34.9377 20.8707 34.9377 20.8707 L 32.5707 20.5165 Z" fill="#1c1c1a"/>
				</g>
			</g>
		</g>
	</g>
</svg>